<svg data-v-423bf9ae="" xmlns="http://www.w3.org/2000/svg" viewBox="0 0 508 90" class="iconLeftSlogan"><!----><!----><!----><g data-v-423bf9ae="" id="d3b3abc7-c3af-4982-aa99-abaf2ee727ee" fill="white" transform="matrix(5,0,0,5,88.42237424850464,-11.499999046325684)"><path d="M5.39 5.83L5.39 5.83L5.39 5.83Q5.63 5.60 5.63 5.49L5.63 5.49L5.63 5.49Q5.63 5.39 5.53 5.31L5.53 5.31L5.53 5.31Q5.43 5.24 5.27 5.18L5.27 5.18L5.27 5.18Q5.12 5.13 4.93 5.09L4.93 5.09L4.93 5.09Q4.74 5.05 4.57 5.03L4.57 5.03L4.57 5.03Q4.21 4.99 3.96 4.99L3.96 4.99L3.96 4.99Q3.71 4.99 3.39 5.04L3.39 5.04L3.39 5.04Q3.06 5.09 2.79 5.22L2.79 5.22L2.79 5.22Q2.17 5.54 2.17 6.16L2.17 6.16L2.17 6.16Q2.17 6.78 2.40 7.15L2.40 7.15L2.40 7.15Q2.63 7.53 2.99 7.77L2.99 7.77L2.99 7.77Q3.36 8.02 3.84 8.18L3.84 8.18L3.84 8.18Q4.31 8.35 4.81 8.49L4.81 8.49L4.81 8.49Q5.31 8.63 5.79 8.80L5.79 8.80L5.79 8.80Q6.26 8.96 6.63 9.21L6.63 9.21L6.63 9.21Q7.46 9.78 7.46 10.79L7.46 10.79L7.46 10.79Q7.46 11.79 6.62 12.63L6.62 12.63L6.62 12.63Q5.90 13.36 4.71 13.82L4.71 13.82L4.71 13.82Q3.64 14.25 2.65 14.25L2.65 14.25L2.65 14.25Q2.04 14.25 1.55 14.10L1.55 14.10L1.55 14.10Q1.05 13.96 0.85 13.85L0.85 13.85L0.85 13.85Q0.37 13.61 0.37 13.28L0.37 13.28L0.37 13.28Q0.37 12.76 1.93 11.90L1.93 11.90L1.93 11.90Q1.73 12.13 1.73 12.34L1.73 12.34L1.73 12.34Q1.73 12.54 1.86 12.69L1.86 12.69L1.86 12.69Q2.00 12.84 2.21 12.94L2.21 12.94L2.21 12.94Q2.42 13.05 2.68 13.12L2.68 13.12L2.68 13.12Q2.95 13.19 3.21 13.23L3.21 13.23L3.21 13.23Q3.68 13.30 4.07 13.30L4.07 13.30L4.07 13.30Q4.46 13.30 4.84 13.23L4.84 13.23L4.84 13.23Q5.22 13.16 5.51 12.98L5.51 12.98L5.51 12.98Q6.17 12.58 6.17 11.73L6.17 11.73L6.17 11.73Q6.17 10.40 4.49 9.76L4.49 9.76L4.49 9.76Q4.01 9.58 3.51 9.42L3.51 9.42L3.51 9.42Q3.01 9.26 2.53 9.09L2.53 9.09L2.53 9.09Q2.05 8.92 1.68 8.68L1.68 8.68L1.68 8.68Q0.85 8.13 0.85 7.24L0.85 7.24L0.85 7.24Q0.85 6.49 1.69 5.70L1.69 5.70L1.69 5.70Q2.41 5.02 3.51 4.53L3.51 4.53L3.51 4.53Q4.56 4.05 5.30 4.05L5.30 4.05L5.30 4.05Q5.96 4.05 6.36 4.18L6.36 4.18L6.36 4.18Q6.77 4.30 6.87 4.36L6.87 4.36L6.87 4.36Q6.98 4.43 6.98 4.52L6.98 4.52L6.98 4.52Q6.98 4.60 6.88 4.72L6.88 4.72L6.88 4.72Q6.79 4.84 6.64 4.98L6.64 4.98L6.64 4.98Q6.49 5.11 6.31 5.25L6.31 5.25L6.31 5.25Q6.13 5.39 5.95 5.50L5.95 5.50L5.95 5.50Q5.54 5.77 5.39 5.83ZM10.20 10.53L10.20 12.59L10.20 12.59Q10.20 13.28 10.60 13.28L10.60 13.28L10.60 13.28Q10.73 13.28 11.01 13.16L11.01 13.16L11.01 13.16Q10.75 13.75 10.21 14.05L10.21 14.05L10.21 14.05Q9.94 14.21 9.63 14.19L9.63 14.19L9.63 14.19Q9.32 14.18 9.19 14.03L9.19 14.03L9.19 14.03Q9.06 13.88 8.98 13.67L8.98 13.67L8.98 13.67Q8.87 13.33 8.87 12.80L8.87 12.80L8.87 5.00L8.87 5.00Q8.87 4.27 8.62 4.03L8.62 4.03L8.62 4.03Q8.50 3.92 8.33 3.92L8.33 3.92L8.33 3.92Q8.03 3.92 7.68 4.02L7.68 4.02L7.68 4.02Q8.52 3.36 10.20 2.30L10.20 2.30L10.20 8.57L10.20 8.57Q11.05 7.82 11.95 7.55L11.95 7.55L11.95 7.55Q12.28 7.44 12.58 7.44L12.58 7.44L12.58 7.44Q12.89 7.44 13.17 7.54L13.17 7.54L13.17 7.54Q13.45 7.64 13.67 7.82L13.67 7.82L13.67 7.82Q14.15 8.22 14.15 8.83L14.15 8.83L14.15 12.30L14.15 12.30Q14.15 13.21 14.59 13.30L14.59 13.30L14.59 13.30Q14.71 13.33 14.85 13.33L14.85 13.33L14.85 13.33Q15.06 13.33 15.44 13.16L15.44 13.16L15.44 13.16Q14.88 13.88 14.12 14.11L14.12 14.11L14.12 14.11Q13.86 14.19 13.57 14.19L13.57 14.19L13.57 14.19Q13.27 14.19 13.10 14.05L13.10 14.05L13.10 14.05Q12.94 13.90 12.88 13.69L12.88 13.69L12.88 13.69Q12.82 13.47 12.82 13.21L12.82 13.21L12.82 10.14L12.82 10.14Q12.82 9.10 12.50 8.74L12.50 8.74L12.50 8.74Q12.20 8.39 11.41 8.39L11.41 8.39L11.41 8.39Q10.35 8.39 10.23 9.84L10.23 9.84L10.23 9.84Q10.20 10.21 10.20 10.53L10.20 10.53ZM20.57 9.28L20.57 12.06L20.56 12.54L20.56 12.54Q20.56 13.07 20.86 13.21L20.86 13.21L20.86 13.21Q20.97 13.27 21.12 13.27L21.12 13.27L21.12 13.27Q21.36 13.27 21.62 13.16L21.62 13.16L21.62 13.16Q21.36 13.27 21.16 13.45L21.16 13.45L21.16 13.45Q20.97 13.62 20.77 13.79L20.77 13.79L20.77 13.79Q20.28 14.21 19.78 14.21L19.78 14.21L19.78 14.21Q19.28 14.21 19.25 13.63L19.25 13.63L19.25 13.63Q19.24 13.48 19.24 13.33L19.24 13.33L19.24 13.33Q18.01 14.18 16.98 14.18L16.98 14.18L16.98 14.18Q16.11 14.18 15.78 13.66L15.78 13.66L15.78 13.66Q15.65 13.47 15.65 13.13L15.65 13.13L15.65 13.13Q15.65 12.80 15.86 12.46L15.86 12.46L15.86 12.46Q16.06 12.12 16.38 11.84L16.38 11.84L16.38 11.84Q16.94 11.32 17.73 10.99L17.73 10.99L17.73 10.99Q18.32 10.73 19.24 10.70L19.24 10.70L19.24 10.40L19.24 10.40Q19.24 9.31 19.04 8.93L19.04 8.93L19.04 8.93Q18.85 8.54 18.53 8.36L18.53 8.36L18.53 8.36Q18.22 8.18 17.79 8.18L17.79 8.18L17.79 8.18Q17.08 8.18 16.53 8.46L16.53 8.46L16.53 8.46Q17.28 7.84 17.63 7.64L17.63 7.64L17.63 7.64Q18.35 7.24 18.93 7.24L18.93 7.24L18.93 7.24Q19.52 7.24 19.81 7.41L19.81 7.41L19.81 7.41Q20.10 7.58 20.28 7.86L20.28 7.86L20.28 7.86Q20.57 8.35 20.57 9.28L20.57 9.28ZM17.36 13.04L17.36 13.04L17.36 13.04Q17.52 13.16 17.74 13.21L17.74 13.21L17.74 13.21Q17.96 13.27 18.39 13.27L18.39 13.27L18.39 13.27Q18.82 13.27 19.24 13.06L19.24 13.06L19.24 11.63L18.14 11.63L18.14 11.63Q17.54 11.63 17.10 11.71L17.10 11.71L17.10 11.71Q17.01 12.00 17.01 12.27L17.01 12.27L17.01 12.27Q17.01 12.54 17.10 12.73L17.10 12.73L17.10 12.73Q17.19 12.92 17.36 13.04ZM26.93 9.28L26.93 12.06L26.91 12.54L26.91 12.54Q26.91 13.07 27.21 13.21L27.21 13.21L27.21 13.21Q27.33 13.27 27.48 13.27L27.48 13.27L27.48 13.27Q27.72 13.27 27.97 13.16L27.97 13.16L27.97 13.16Q27.71 13.27 27.52 13.45L27.52 13.45L27.52 13.45Q27.33 13.62 27.13 13.79L27.13 13.79L27.13 13.79Q26.64 14.21 26.14 14.21L26.14 14.21L26.14 14.21Q25.64 14.21 25.61 13.63L25.61 13.63L25.61 13.63Q25.59 13.48 25.59 13.33L25.59 13.33L25.59 13.33Q24.36 14.18 23.34 14.18L23.34 14.18L23.34 14.18Q22.47 14.18 22.13 13.66L22.13 13.66L22.13 13.66Q22.01 13.47 22.01 13.13L22.01 13.13L22.01 13.13Q22.01 12.80 22.22 12.46L22.22 12.46L22.22 12.46Q22.42 12.12 22.74 11.84L22.74 11.84L22.74 11.84Q23.30 11.32 24.09 10.99L24.09 10.99L24.09 10.99Q24.68 10.73 25.60 10.70L25.60 10.70L25.60 10.40L25.60 10.40Q25.60 9.31 25.40 8.93L25.40 8.93L25.40 8.93Q25.20 8.54 24.89 8.36L24.89 8.36L24.89 8.36Q24.58 8.18 24.15 8.18L24.15 8.18L24.15 8.18Q23.43 8.18 22.89 8.46L22.89 8.46L22.89 8.46Q23.64 7.84 23.99 7.64L23.99 7.64L23.99 7.64Q24.71 7.24 25.29 7.24L25.29 7.24L25.29 7.24Q25.87 7.24 26.17 7.41L26.17 7.41L26.17 7.41Q26.46 7.58 26.63 7.86L26.63 7.86L26.63 7.86Q26.93 8.35 26.93 9.28L26.93 9.28ZM23.71 13.04L23.71 13.04L23.71 13.04Q23.88 13.16 24.10 13.21L24.10 13.21L24.10 13.21Q24.32 13.27 24.75 13.27L24.75 13.27L24.75 13.27Q25.18 13.27 25.60 13.06L25.60 13.06L25.60 11.63L24.49 11.63L24.49 11.63Q23.90 11.63 23.45 11.71L23.45 11.71L23.45 11.71Q23.37 12.00 23.37 12.27L23.37 12.27L23.37 12.27Q23.37 12.54 23.46 12.73L23.46 12.73L23.46 12.73Q23.55 12.92 23.71 13.04ZM30.92 7.86L30.92 7.86Q31.40 7.59 31.92 7.45L31.92 7.45L31.92 7.45Q32.45 7.30 32.81 7.30L32.81 7.30L32.81 7.30Q33.17 7.30 33.45 7.35L33.45 7.35L33.45 5.11L33.45 5.11Q33.45 4.38 33.18 4.14L33.18 4.14L33.18 4.14Q33.06 4.03 32.88 4.03L32.88 4.03L32.88 4.03Q32.67 4.03 32.26 4.13L32.26 4.13L32.26 4.13Q33.97 2.82 34.77 2.41L34.77 2.41L34.77 12.19L34.77 12.19Q34.77 12.74 34.89 12.92L34.89 12.92L34.89 12.92Q35.10 13.26 35.60 13.26L35.60 13.26L35.60 13.26Q35.81 13.26 36.00 13.22L36.00 13.22L36.00 13.22Q35.81 13.38 35.61 13.55L35.61 13.55L35.61 13.55Q35.42 13.72 35.21 13.86L35.21 13.86L35.21 13.86Q34.72 14.19 34.35 14.19L34.35 14.19L34.35 14.19Q33.98 14.19 33.82 14.12L33.82 14.12L33.82 14.12Q33.66 14.05 33.57 13.92L33.57 13.92L33.57 13.92Q33.43 13.73 33.43 13.18L33.43 13.18L33.43 13.18Q32.03 14.22 31.19 14.22L31.19 14.22L31.19 14.22Q29.93 14.22 29.27 13.38L29.27 13.38L29.27 13.38Q28.66 12.62 28.66 11.33L28.66 11.33L28.66 11.33Q28.66 10.28 29.31 9.32L29.31 9.32L29.31 9.32Q29.92 8.42 30.92 7.86L30.92 7.86ZM33.45 12.60L33.45 9.21L33.45 9.21Q33.14 8.72 32.65 8.47L32.65 8.47L32.65 8.47Q32.16 8.22 31.62 8.22L31.62 8.22L31.62 8.22Q31.09 8.22 30.78 8.40L30.78 8.40L30.78 8.40Q30.46 8.58 30.28 8.88L30.28 8.88L30.28 8.88Q29.98 9.40 29.98 10.18L29.98 10.18L29.98 10.18Q29.98 10.96 30.11 11.49L30.11 11.49L30.11 11.49Q30.25 12.02 30.54 12.43L30.54 12.43L30.54 12.43Q31.19 13.30 32.42 13.30L32.42 13.30L32.42 13.30Q32.69 13.30 32.95 13.14L32.95 13.14L32.95 13.14Q33.45 12.85 33.45 12.60L33.45 12.60ZM37.38 3.41L38.71 2.48L38.75 3.26L38.75 3.62L38.75 3.62Q38.75 3.94 38.66 4.02L38.66 4.02L38.66 4.02Q38.58 4.09 38.49 4.16L38.49 4.16L38.49 4.16Q38.10 4.43 37.38 4.89L37.38 4.89L37.38 4.89Q37.41 4.21 37.41 4.19L37.41 4.19L37.41 4.19Q37.41 4.16 37.38 3.41L37.38 3.41ZM40.13 13.24L40.13 13.24L40.13 13.24Q39.93 13.41 39.73 13.58L39.73 13.58L39.73 13.58Q39.54 13.75 39.33 13.89L39.33 13.89L39.33 13.89Q38.83 14.21 38.38 14.21L38.38 14.21L38.38 14.21Q37.96 14.21 37.79 14.08L37.79 14.08L37.79 14.08Q37.44 13.82 37.44 13.13L37.44 13.13L37.44 9.88L37.44 9.88Q37.44 9.15 37.17 8.93L37.17 8.93L37.17 8.93Q37.05 8.83 36.91 8.83L36.91 8.83L36.91 8.83Q36.76 8.83 36.66 8.84L36.66 8.84L36.66 8.84Q36.57 8.86 36.46 8.88L36.46 8.88L36.46 8.88Q36.36 8.90 36.25 8.92L36.25 8.92L36.25 8.92Q36.59 8.65 36.89 8.44L36.89 8.44L36.89 8.44Q37.19 8.23 37.40 8.09L37.40 8.09L37.40 8.09Q37.61 7.94 37.99 7.68L37.99 7.68L37.99 7.68Q38.36 7.42 38.77 7.21L38.77 7.21L38.77 12.03L38.77 12.03Q38.77 12.73 38.86 12.91L38.86 12.91L38.86 12.91Q39.05 13.29 39.70 13.29L39.70 13.29L39.70 13.29Q39.88 13.29 40.13 13.24ZM52.18 5.17L51.17 5.17L51.17 5.17Q50.31 6.09 48.11 8.14L48.11 8.14L48.11 8.14Q52.14 12.11 52.98 12.70L52.98 12.70L52.98 12.70Q53.63 13.17 54.24 13.17L54.24 13.17L54.24 13.17Q54.55 13.17 55.27 12.84L55.27 12.84L55.27 12.84Q54.89 13.21 54.58 13.41L54.58 13.41L54.58 13.41Q54.28 13.60 54.08 13.72L54.08 13.72L54.08 13.72Q53.87 13.83 53.66 13.92L53.66 13.92L53.66 13.92Q52.81 14.26 52.23 14.01L52.23 14.01L52.23 14.01Q51.78 13.82 51.42 13.50L51.42 13.50L51.42 13.50Q51.06 13.17 50.83 12.97L50.83 12.97L50.83 12.97Q50.59 12.76 50.27 12.47L50.27 12.47L50.27 12.47Q49.95 12.18 49.60 11.87L49.60 11.87L49.60 11.87Q48.95 11.26 48.22 10.56L48.22 10.56L48.22 10.56Q47.48 9.86 46.69 9.11L46.69 9.11L46.69 9.11Q49.99 5.95 50.67 5.17L50.67 5.17L49.47 5.17L49.47 5.17Q49.94 4.75 50.33 4.50L50.33 4.50L50.33 4.50Q50.72 4.25 50.80 4.25L50.80 4.25L53.51 4.25L53.51 4.25Q53.38 4.27 53.06 4.56L53.06 4.56L53.06 4.56Q52.75 4.85 52.62 4.95L52.62 4.95L52.62 4.95Q52.33 5.17 52.18 5.17L52.18 5.17ZM46.93 14.08L44.61 14.08L44.61 14.08Q45.23 13.45 45.23 11.70L45.23 11.70L45.23 5.17L43.95 5.17L44.21 4.96L44.21 4.96Q45.08 4.25 45.27 4.25L45.27 4.25L48.39 4.25L48.39 4.25Q48.32 4.25 47.95 4.57L47.95 4.57L47.95 4.57Q47.58 4.89 47.38 5.03L47.38 5.03L47.38 5.03Q47.19 5.17 47.07 5.17L47.07 5.17L46.56 5.17L46.56 11.43L46.56 11.43Q46.56 12.08 46.50 12.31L46.50 12.31L46.50 12.31Q46.40 12.67 46.07 13.15L46.07 13.15L48.26 13.15L48.26 13.15Q48.17 13.17 47.84 13.45L47.84 13.45L47.84 13.45Q47.51 13.74 47.37 13.84L47.37 13.84L47.37 13.84Q47.07 14.08 46.93 14.08L46.93 14.08ZM60.10 9.28L60.10 12.06L60.09 12.54L60.09 12.54Q60.09 13.07 60.39 13.21L60.39 13.21L60.39 13.21Q60.50 13.27 60.66 13.27L60.66 13.27L60.66 13.27Q60.89 13.27 61.15 13.16L61.15 13.16L61.15 13.16Q60.89 13.27 60.70 13.45L60.70 13.45L60.70 13.45Q60.50 13.62 60.31 13.79L60.31 13.79L60.31 13.79Q59.81 14.21 59.32 14.21L59.32 14.21L59.32 14.21Q58.82 14.21 58.78 13.63L58.78 13.63L58.78 13.63Q58.77 13.48 58.77 13.33L58.77 13.33L58.77 13.33Q57.54 14.18 56.51 14.18L56.51 14.18L56.51 14.18Q55.64 14.18 55.31 13.66L55.31 13.66L55.31 13.66Q55.19 13.47 55.19 13.13L55.19 13.13L55.19 13.13Q55.19 12.80 55.39 12.46L55.39 12.46L55.39 12.46Q55.60 12.12 55.91 11.84L55.91 11.84L55.91 11.84Q56.47 11.32 57.26 10.99L57.26 10.99L57.26 10.99Q57.85 10.73 58.78 10.70L58.78 10.70L58.78 10.40L58.78 10.40Q58.78 9.31 58.58 8.93L58.58 8.93L58.58 8.93Q58.38 8.54 58.06 8.36L58.06 8.36L58.06 8.36Q57.75 8.18 57.33 8.18L57.33 8.18L57.33 8.18Q56.61 8.18 56.06 8.46L56.06 8.46L56.06 8.46Q56.81 7.84 57.16 7.64L57.16 7.64L57.16 7.64Q57.88 7.24 58.46 7.24L58.46 7.24L58.46 7.24Q59.05 7.24 59.34 7.41L59.34 7.41L59.34 7.41Q59.64 7.58 59.81 7.86L59.81 7.86L59.81 7.86Q60.10 8.35 60.10 9.28L60.10 9.28ZM56.89 13.04L56.89 13.04L56.89 13.04Q57.05 13.16 57.27 13.21L57.27 13.21L57.27 13.21Q57.49 13.27 57.92 13.27L57.92 13.27L57.92 13.27Q58.35 13.27 58.78 13.06L58.78 13.06L58.78 11.63L57.67 11.63L57.67 11.63Q57.07 11.63 56.63 11.71L56.63 11.71L56.63 11.71Q56.54 12.00 56.54 12.27L56.54 12.27L56.54 12.27Q56.54 12.54 56.63 12.73L56.63 12.73L56.63 12.73Q56.72 12.92 56.89 13.04ZM63.62 2.41L63.62 8.57L63.62 8.57Q65.00 7.37 66.14 7.37L66.14 7.37L66.14 7.37Q67.30 7.37 67.94 8.29L67.94 8.29L67.94 8.29Q68.50 9.08 68.50 10.27L68.50 10.27L68.50 10.27Q68.50 11.19 67.90 12.14L67.90 12.14L67.90 12.14Q67.32 13.06 66.44 13.67L66.44 13.67L66.44 13.67Q65.50 14.30 64.58 14.30L64.58 14.30L64.58 14.30Q63.62 14.30 62.95 13.64L62.95 13.64L62.95 13.64Q62.30 12.98 62.30 12.01L62.30 12.01L62.30 5.24L62.30 5.24Q62.30 4.66 62.23 4.46L62.23 4.46L62.23 4.46Q62.09 4.03 61.67 4.03L61.67 4.03L61.67 4.03Q61.56 4.03 61.39 4.07L61.39 4.07L61.39 4.07Q61.22 4.11 61.11 4.13L61.11 4.13L61.11 4.13Q61.78 3.60 62.13 3.38L62.13 3.38L62.13 3.38Q62.47 3.15 62.84 2.89L62.84 2.89L62.84 2.89Q63.22 2.63 63.62 2.41L63.62 2.41ZM67.12 12.09L67.12 12.09L67.12 12.09Q67.18 11.68 67.18 11.18L67.18 11.18L67.18 11.18Q67.18 10.68 67.06 10.15L67.06 10.15L67.06 10.15Q66.93 9.63 66.66 9.21L66.66 9.21L66.66 9.21Q66.04 8.29 64.92 8.29L64.92 8.29L64.92 8.29Q64.33 8.29 63.96 8.85L63.96 8.85L63.96 8.85Q63.62 9.36 63.62 10.00L63.62 10.00L63.62 11.69L63.62 11.69Q63.62 12.46 64.18 12.95L64.18 12.95L64.18 12.95Q64.72 13.44 65.55 13.44L65.55 13.44L65.55 13.44Q66.89 13.44 67.12 12.09ZM71.31 2.41L71.31 8.57L71.31 8.57Q72.69 7.37 73.83 7.37L73.83 7.37L73.83 7.37Q74.99 7.37 75.63 8.29L75.63 8.29L75.63 8.29Q76.19 9.08 76.19 10.27L76.19 10.27L76.19 10.27Q76.19 11.19 75.59 12.14L75.59 12.14L75.59 12.14Q75.01 13.06 74.13 13.67L74.13 13.67L74.13 13.67Q73.19 14.30 72.27 14.30L72.27 14.30L72.27 14.30Q71.31 14.30 70.64 13.64L70.64 13.64L70.64 13.64Q69.99 12.98 69.99 12.01L69.99 12.01L69.99 5.24L69.99 5.24Q69.99 4.66 69.92 4.46L69.92 4.46L69.92 4.46Q69.78 4.03 69.36 4.03L69.36 4.03L69.36 4.03Q69.25 4.03 69.08 4.07L69.08 4.07L69.08 4.07Q68.91 4.11 68.80 4.13L68.80 4.13L68.80 4.13Q69.47 3.60 69.82 3.38L69.82 3.38L69.82 3.38Q70.16 3.15 70.53 2.89L70.53 2.89L70.53 2.89Q70.91 2.63 71.31 2.41L71.31 2.41ZM74.81 12.09L74.81 12.09L74.81 12.09Q74.87 11.68 74.87 11.18L74.87 11.18L74.87 11.18Q74.87 10.68 74.75 10.15L74.75 10.15L74.75 10.15Q74.62 9.63 74.35 9.21L74.35 9.21L74.35 9.21Q73.73 8.29 72.61 8.29L72.61 8.29L72.61 8.29Q72.02 8.29 71.65 8.85L71.65 8.85L71.65 8.85Q71.31 9.36 71.31 10.00L71.31 10.00L71.31 11.69L71.31 11.69Q71.31 12.46 71.87 12.95L71.87 12.95L71.87 12.95Q72.41 13.44 73.24 13.44L73.24 13.44L73.24 13.44Q74.58 13.44 74.81 12.09ZM83.00 8.18L83.00 8.18L83.00 8.18Q83.34 8.57 83.54 9.08L83.54 9.08L83.54 9.08Q83.73 9.59 83.73 10.10L83.73 10.10L83.73 10.10Q83.73 10.62 83.58 11.10L83.58 11.10L83.58 11.10Q83.43 11.59 83.16 12.04L83.16 12.04L83.16 12.04Q82.89 12.50 82.53 12.89L82.53 12.89L82.53 12.89Q82.16 13.28 81.72 13.58L81.72 13.58L81.72 13.58Q80.79 14.20 79.84 14.20L79.84 14.20L79.84 14.20Q78.73 14.20 77.95 13.33L77.95 13.33L77.95 13.33Q77.19 12.50 77.19 11.38L77.19 11.38L77.19 11.38Q77.19 10.42 77.77 9.45L77.77 9.45L77.77 9.45Q78.64 7.99 80.14 7.48L80.14 7.48L80.14 7.48Q80.62 7.31 81.15 7.31L81.15 7.31L81.15 7.31Q81.68 7.31 82.16 7.54L82.16 7.54L82.16 7.54Q82.65 7.78 83.00 8.18ZM79.76 8.22L79.76 8.22L79.76 8.22Q79.08 8.22 78.76 8.89L78.76 8.89L78.76 8.89Q78.52 9.41 78.52 10.06L78.52 10.06L78.52 10.06Q78.52 10.72 78.69 11.28L78.69 11.28L78.69 11.28Q78.87 11.85 79.21 12.29L79.21 12.29L79.21 12.29Q79.97 13.29 81.16 13.29L81.16 13.29L81.16 13.29Q81.86 13.29 82.17 12.59L82.17 12.59L82.17 12.59Q82.40 12.07 82.40 11.40L82.40 11.40L82.40 11.40Q82.40 10.08 81.67 9.15L81.67 9.15L81.67 9.15Q80.93 8.22 79.76 8.22Z"></path></g><!----><g data-v-423bf9ae="" id="42a754ba-b293-4265-9702-72d3f836c83d" transform="matrix(1.3473659587610403,0,0,1.3473659587610403,-31.326600388721886,-21.746474801365466)" stroke="none" fill="white"><path d="M67.998 33.527l2.71-9.999-2.163-1.182-5.284 9.668zM70.907 34.457l1.846-9.811-1.607-.879-2.687 9.908zM63.024 32.448l-1.834 3.353 5.464-.702 1.073-1.15zM62.835 31.782l5.285-9.669-2.094-1.143-7.024 7.642zM67.408 35.002l2.571-.332-1.743-.558z"></path><path d="M63.599 38.181l9.555-1.229 2.58-13.718-12.247-6.691-10.151 9.58 4.129 8.711a25.023 25.023 0 0 0-8.81-1.622c-9.181 0-17.615 5-22.012 13.049-6.624 12.121-2.152 27.377 9.972 34.008a25.116 25.116 0 0 0 11.997 3.071c9.18 0 17.613-4.998 22.01-13.047 6.058-11.081 2.836-24.776-7.023-32.112zm-7.536-11.4a.237.237 0 0 1 .052-.275l-.002-.001 7.407-7.26.003.002a.241.241 0 0 1 .283-.043l9.334 5.101a.243.243 0 0 1 .119.257h.003l-1.929 10.255h-.002a.243.243 0 0 1-.206.196l-10.344 1.331-.031.001a.223.223 0 0 1-.112-.033.043.043 0 0 1-.022-.013.229.229 0 0 1-.08-.089l-.004-.003-4.469-9.426zm9.452 40.722a19.253 19.253 0 0 1-16.904 10.018c-3.196 0-6.38-.815-9.207-2.358-9.307-5.091-12.74-16.802-7.653-26.11a19.248 19.248 0 0 1 16.902-10.019c3.197 0 6.379.817 9.205 2.36 9.309 5.089 12.744 16.801 7.657 26.109z"></path><path d="M58.317 30.403l.084-1.659-1.431-1.184zM62.6 32.215l-3.733-3.085-.112 2.196 2.012 4.242zM63.73 19.715l-7.085 6.946 1.984 1.641 6.959-7.571z"></path></g><!----><g data-v-423bf9ae="" id="f4588f6a-8959-4e44-9852-6221211df15b" fill="white" transform="matrix(0.6774206688360422,0,0,0.6774206688360422,90.01495419261403,58.14386594289429)"><path d="M0.75 3.64L0.38 3.64L0.38 3.08L3.86 3.08L3.86 3.64L3.50 3.64L3.50 3.64Q2.99 3.64 2.84 3.75L2.84 3.75L2.84 3.75Q2.71 3.84 2.70 4.25L2.70 4.25L2.70 6.91L7.25 6.91L7.25 4.14L7.25 4.14Q7.25 3.77 7.16 3.71L7.16 3.71L7.16 3.71Q7.05 3.64 6.52 3.64L6.52 3.64L5.93 3.64L5.92 3.08L9.47 3.08L9.47 3.64L9.08 3.64L9.08 3.64Q8.61 3.64 8.50 3.74L8.50 3.74L8.50 3.74Q8.39 3.83 8.39 4.22L8.39 4.22L8.39 11.29L8.39 11.29Q8.39 11.67 8.52 11.77L8.52 11.77L8.52 11.77Q8.68 11.87 9.23 11.87L9.23 11.87L9.70 11.87L9.69 12.41L6.20 12.41L6.19 11.87L6.60 11.87L6.60 11.87Q7.06 11.87 7.16 11.77L7.16 11.77L7.16 11.77Q7.25 11.67 7.25 11.25L7.25 11.25L7.25 7.58L2.70 7.58L2.70 11.25L2.70 11.25Q2.70 11.67 2.85 11.77L2.85 11.77L2.85 11.77Q3.01 11.87 3.71 11.87L3.71 11.87L4.12 11.87L4.09 12.41L0.51 12.41L0.49 11.87L0.85 11.87L0.85 11.87Q1.40 11.87 1.47 11.80L1.47 11.80L1.47 11.80Q1.57 11.70 1.57 11.25L1.57 11.25L1.57 4.09L1.57 4.09Q1.57 3.76 1.43 3.71L1.43 3.71L1.43 3.71Q1.26 3.64 0.75 3.64L0.75 3.64ZM17.45 12.41L17.44 11.87L17.61 11.87L17.61 11.87Q18.00 11.87 18.13 11.73L18.13 11.73L18.13 11.73Q18.25 11.57 18.59 10.83L18.59 10.83L19.50 8.82L20.07 7.53L20.07 7.53Q20.34 6.97 20.38 6.86L20.38 6.86L20.38 6.86Q20.45 6.70 20.50 6.60L20.50 6.60L20.50 6.60Q20.55 6.51 20.56 6.45L20.56 6.45L20.66 6.21L22.09 2.74L22.38 2.74L22.38 2.74Q23.24 4.98 25.42 10.25L25.42 10.25L25.42 10.25Q25.87 11.34 26.07 11.64L26.07 11.64L26.07 11.64Q26.20 11.87 26.64 11.87L26.64 11.87L26.85 11.87L26.84 12.41L23.65 12.41L23.66 11.87L24.08 11.87L24.08 11.87Q24.69 11.87 24.69 11.70L24.69 11.70L24.69 11.70Q24.69 11.63 24.55 11.27L24.55 11.27L23.52 8.72L20.27 8.72L19.16 11.18L19.16 11.18Q19.02 11.50 19.02 11.63L19.02 11.63L19.02 11.63Q19.02 11.79 19.12 11.83L19.12 11.83L19.12 11.83Q19.22 11.87 19.60 11.87L19.60 11.87L20.17 11.87L20.17 12.41L17.45 12.41ZM21.95 4.79L20.54 8.10L23.28 8.10L21.95 4.79ZM38.31 12.41L34.58 12.41L34.58 11.87L35.02 11.87L35.02 11.87Q35.40 11.87 35.45 11.81L35.45 11.81L35.45 11.81Q35.52 11.74 35.53 11.46L35.53 11.46L35.53 4.14L35.53 4.14Q35.53 3.81 35.44 3.72L35.44 3.72L35.44 3.72Q35.36 3.64 34.99 3.64L34.99 3.64L34.62 3.64L34.64 3.08L37.52 3.08L37.52 3.08Q38.67 3.08 39.32 3.19L39.32 3.19L39.32 3.19Q39.92 3.28 40.39 3.68L40.39 3.68L40.39 3.68Q41.58 4.64 41.58 6.19L41.58 6.19L41.58 6.19Q41.58 7.23 40.82 7.98L40.82 7.98L40.82 7.98Q40.04 8.74 38.63 8.73L38.63 8.73L38.63 8.73Q38.46 8.73 38.04 8.70L38.04 8.70L38.04 8.70Q37.93 8.69 37.51 8.62L37.51 8.62L37.51 8.62Q37.17 8.55 37.08 8.54L37.08 8.54L37.08 8.54Q36.78 8.47 36.77 8.46L36.77 8.46L36.65 8.44L36.65 11.46L36.65 11.46Q36.65 11.74 36.78 11.81L36.78 11.81L36.78 11.81Q36.89 11.87 37.61 11.87L37.61 11.87L38.31 11.87L38.31 12.41ZM36.65 4.28L36.65 8.02L36.65 8.02Q37.00 8.29 37.97 8.29L37.97 8.29L37.97 8.29Q39.11 8.29 39.68 7.75L39.68 7.75L39.68 7.75Q40.27 7.21 40.27 6.16L40.27 6.16L40.27 6.16Q40.27 4.98 39.36 4.31L39.36 4.31L39.36 4.31Q38.47 3.64 37.08 3.64L37.08 3.64L37.08 3.64Q36.83 3.64 36.74 3.75L36.74 3.75L36.74 3.75Q36.66 3.84 36.65 4.28L36.65 4.28ZM53.29 12.41L49.56 12.41L49.56 11.87L50.00 11.87L50.00 11.87Q50.37 11.87 50.43 11.81L50.43 11.81L50.43 11.81Q50.50 11.74 50.50 11.46L50.50 11.46L50.50 4.14L50.50 4.14Q50.50 3.81 50.42 3.72L50.42 3.72L50.42 3.72Q50.33 3.64 49.97 3.64L49.97 3.64L49.60 3.64L49.62 3.08L52.50 3.08L52.50 3.08Q53.65 3.08 54.30 3.19L54.30 3.19L54.30 3.19Q54.90 3.28 55.37 3.68L55.37 3.68L55.37 3.68Q56.56 4.64 56.56 6.19L56.56 6.19L56.56 6.19Q56.56 7.23 55.79 7.98L55.79 7.98L55.79 7.98Q55.02 8.74 53.61 8.73L53.61 8.73L53.61 8.73Q53.44 8.73 53.02 8.70L53.02 8.70L53.02 8.70Q52.91 8.69 52.49 8.62L52.49 8.62L52.49 8.62Q52.15 8.55 52.06 8.54L52.06 8.54L52.06 8.54Q51.76 8.47 51.75 8.46L51.75 8.46L51.63 8.44L51.63 11.46L51.63 11.46Q51.63 11.74 51.76 11.81L51.76 11.81L51.76 11.81Q51.87 11.87 52.59 11.87L52.59 11.87L53.29 11.87L53.29 12.41ZM51.63 4.28L51.63 8.02L51.63 8.02Q51.98 8.29 52.95 8.29L52.95 8.29L52.95 8.29Q54.09 8.29 54.66 7.75L54.66 7.75L54.66 7.75Q55.25 7.21 55.25 6.16L55.25 6.16L55.25 6.16Q55.25 4.98 54.34 4.31L54.34 4.31L54.34 4.31Q53.44 3.64 52.06 3.64L52.06 3.64L52.06 3.64Q51.80 3.64 51.72 3.75L51.72 3.75L51.72 3.75Q51.64 3.84 51.63 4.28L51.63 4.28ZM65.13 3.64L64.54 3.64L64.55 3.08L68.07 3.08L68.07 3.64L67.83 3.64L67.83 3.64Q67.29 3.64 67.12 3.73L67.12 3.73L67.12 3.73Q66.98 3.81 66.98 4.28L66.98 4.28L66.98 11.22L66.98 11.22Q66.98 11.68 67.09 11.77L67.09 11.77L67.09 11.77Q67.20 11.87 67.73 11.87L67.73 11.87L68.28 11.87L68.29 12.41L64.71 12.41L64.70 11.87L65.06 11.87L65.06 11.87Q65.62 11.87 65.73 11.77L65.73 11.77L65.73 11.77Q65.84 11.67 65.84 11.25L65.84 11.25L65.84 4.14L65.84 4.14Q65.84 3.77 65.74 3.71L65.74 3.71L65.74 3.71Q65.63 3.64 65.13 3.64L65.13 3.64ZM76.04 3.64L76.03 3.08L78.20 3.08L83.94 10.48L83.94 4.14L83.94 4.14Q83.94 3.81 83.78 3.72L83.78 3.72L83.78 3.72Q83.63 3.64 83.17 3.64L83.17 3.64L82.68 3.64L82.71 3.08L85.69 3.08L85.69 3.64L85.37 3.64L85.37 3.64Q84.90 3.64 84.75 3.75L84.75 3.75L84.75 3.75Q84.60 3.86 84.60 4.25L84.60 4.25L84.60 12.32L84.60 12.47L84.60 12.47Q84.60 12.52 84.59 12.57L84.59 12.57L84.59 12.57Q84.57 12.61 84.54 12.64L84.54 12.64L84.54 12.64Q84.53 12.65 84.47 12.65L84.47 12.65L84.28 12.65L84.22 12.65L84.19 12.65L84.16 12.64L84.16 12.64Q84.14 12.64 84.12 12.63L84.12 12.63L84.12 12.63Q84.11 12.61 84.11 12.60L84.11 12.60L84.11 12.60Q84.11 12.58 84.10 12.57L84.10 12.57L84.10 12.57Q84.07 12.54 84.04 12.50L84.04 12.50L84.04 12.50Q84.03 12.48 84.01 12.45L84.01 12.45L84.01 12.45Q83.99 12.41 83.97 12.40L83.97 12.40L77.87 4.56L77.94 11.22L77.94 11.22Q77.94 11.67 78.10 11.77L78.10 11.77L78.10 11.77Q78.26 11.87 78.97 11.87L78.97 11.87L79.21 11.87L79.21 12.41L76.27 12.41L76.27 11.87L76.69 11.87L76.69 11.87Q77.07 11.87 77.18 11.76L77.18 11.76L77.18 11.76Q77.27 11.66 77.28 11.25L77.28 11.25L77.28 3.80L77.14 3.64L76.04 3.64ZM93.44 3.64L93.43 3.08L100.64 3.08L100.64 3.08Q100.65 4.14 100.71 5.28L100.71 5.28L100.16 5.30L100.16 5.30Q100.15 4.66 100.09 4.25L100.09 4.25L100.09 4.25Q100.05 3.89 100.00 3.80L100.00 3.80L100.00 3.80Q99.94 3.71 99.83 3.69L99.83 3.69L99.83 3.69Q99.73 3.68 99.14 3.68L99.14 3.68L96.76 3.68L96.76 3.68Q96.22 3.68 96.07 3.77L96.07 3.77L96.07 3.77Q95.95 3.86 95.95 4.33L95.95 4.33L95.95 6.28L95.95 6.28Q95.95 6.69 96.00 6.76L96.00 6.76L96.00 6.76Q96.07 6.84 96.41 6.84L96.41 6.84L98.53 6.84L98.53 6.84Q98.89 6.84 98.97 6.73L98.97 6.73L98.97 6.73Q99.05 6.63 99.06 6.14L99.06 6.14L99.06 5.61L99.57 5.63L99.57 8.97L99.06 8.97L99.06 8.24L99.06 8.24Q99.06 7.66 98.98 7.57L98.98 7.57L98.98 7.57Q98.90 7.46 98.55 7.46L98.55 7.46L96.46 7.46L96.46 7.46Q96.12 7.46 96.03 7.54L96.03 7.54L96.03 7.54Q95.95 7.63 95.95 7.89L95.95 7.89L95.95 11.20L95.95 11.20Q95.95 11.57 96.03 11.67L96.03 11.67L96.03 11.67Q96.12 11.77 96.39 11.77L96.39 11.77L96.39 11.77Q99.31 11.75 99.84 11.69L99.84 11.69L99.84 11.69Q100.36 11.63 100.44 11.38L100.44 11.38L100.45 11.36L100.45 11.35L100.68 10.17L101.16 10.25L100.81 12.41L93.71 12.41L93.71 11.87L94.08 11.87L94.08 11.87Q94.64 11.87 94.72 11.80L94.72 11.80L94.72 11.80Q94.81 11.72 94.81 11.33L94.81 11.33L94.81 4.24L94.81 4.24Q94.81 3.82 94.66 3.73L94.66 3.73L94.66 3.73Q94.49 3.64 93.84 3.64L93.84 3.64L93.44 3.64ZM109.01 10.04L109.01 10.04L109.50 9.98L109.68 10.85L109.68 10.85Q109.79 11.33 109.86 11.41L109.86 11.41L109.86 11.41Q109.93 11.49 110.34 11.64L110.34 11.64L110.34 11.64Q111.18 11.95 112.08 11.95L112.08 11.95L112.08 11.95Q112.86 11.95 113.40 11.49L113.40 11.49L113.40 11.49Q113.93 11.04 113.93 10.26L113.93 10.26L113.93 10.26Q113.93 9.65 113.48 9.21L113.48 9.21L113.48 9.21Q113.00 8.76 112.14 8.30L112.14 8.30L111.57 7.98L111.57 7.98Q110.82 7.55 110.59 7.36L110.59 7.36L110.59 7.36Q110.23 7.08 109.92 6.59L109.92 6.59L109.92 6.59Q109.61 6.10 109.61 5.46L109.61 5.46L109.61 5.46Q109.61 4.39 110.45 3.68L110.45 3.68L110.45 3.68Q111.29 2.97 112.40 2.97L112.40 2.97L112.40 2.97Q112.68 2.97 113.03 3.04L113.03 3.04L113.03 3.04Q113.22 3.08 113.56 3.17L113.56 3.17L113.80 3.25L113.80 3.25Q113.89 3.25 113.93 3.16L113.93 3.16L113.93 3.16Q113.99 3.05 113.99 2.98L113.99 2.98L114.00 2.88L114.48 2.85L114.69 5.41L114.19 5.43L114.06 4.18L114.06 4.18Q113.32 3.62 112.16 3.62L112.16 3.62L112.16 3.62Q111.51 3.62 111.01 4.05L111.01 4.05L111.01 4.05Q110.53 4.47 110.53 5.12L110.53 5.12L110.53 5.12Q110.53 5.72 110.98 6.17L110.98 6.17L110.98 6.17Q111.41 6.60 112.28 7.08L112.28 7.08L113.05 7.50L113.05 7.50Q114.00 8.03 114.54 8.59L114.54 8.59L114.54 8.59Q115.07 9.15 115.07 9.92L115.07 9.92L115.07 9.92Q115.07 10.99 114.21 11.76L114.21 11.76L114.21 11.76Q113.35 12.54 111.89 12.54L111.89 12.54L111.89 12.54Q111.33 12.54 110.83 12.41L110.83 12.41L110.83 12.41Q110.33 12.29 110.27 12.29L110.27 12.29L110.27 12.29Q110.02 12.29 110.02 12.58L110.02 12.58L110.03 12.76L109.55 12.80L109.55 12.80Q109.49 12.41 109.01 10.04ZM123.22 10.04L123.22 10.04L123.72 9.98L123.90 10.85L123.90 10.85Q124.01 11.33 124.08 11.41L124.08 11.41L124.08 11.41Q124.15 11.49 124.56 11.64L124.56 11.64L124.56 11.64Q125.40 11.95 126.29 11.95L126.29 11.95L126.29 11.95Q127.08 11.95 127.62 11.49L127.62 11.49L127.62 11.49Q128.15 11.04 128.15 10.26L128.15 10.26L128.15 10.26Q128.15 9.65 127.70 9.21L127.70 9.21L127.70 9.21Q127.22 8.76 126.36 8.30L126.36 8.30L125.79 7.98L125.79 7.98Q125.04 7.55 124.81 7.36L124.81 7.36L124.81 7.36Q124.45 7.08 124.14 6.59L124.14 6.59L124.14 6.59Q123.83 6.10 123.83 5.46L123.83 5.46L123.83 5.46Q123.83 4.39 124.67 3.68L124.67 3.68L124.67 3.68Q125.51 2.97 126.62 2.97L126.62 2.97L126.62 2.97Q126.90 2.97 127.24 3.04L127.24 3.04L127.24 3.04Q127.44 3.08 127.78 3.17L127.78 3.17L128.02 3.25L128.02 3.25Q128.11 3.25 128.15 3.16L128.15 3.16L128.15 3.16Q128.21 3.05 128.21 2.98L128.21 2.98L128.22 2.88L128.70 2.85L128.91 5.41L128.41 5.43L128.28 4.18L128.28 4.18Q127.54 3.62 126.38 3.62L126.38 3.62L126.38 3.62Q125.73 3.62 125.23 4.05L125.23 4.05L125.23 4.05Q124.75 4.47 124.75 5.12L124.75 5.12L124.75 5.12Q124.75 5.72 125.20 6.17L125.20 6.17L125.20 6.17Q125.63 6.60 126.50 7.08L126.50 7.08L127.27 7.50L127.27 7.50Q128.22 8.03 128.75 8.59L128.75 8.59L128.75 8.59Q129.29 9.15 129.29 9.92L129.29 9.92L129.29 9.92Q129.29 10.99 128.43 11.76L128.43 11.76L128.43 11.76Q127.57 12.54 126.11 12.54L126.11 12.54L126.11 12.54Q125.55 12.54 125.05 12.41L125.05 12.41L125.05 12.41Q124.54 12.29 124.49 12.29L124.49 12.29L124.49 12.29Q124.24 12.29 124.24 12.58L124.24 12.58L124.25 12.76L123.77 12.80L123.77 12.80Q123.71 12.41 123.22 10.04ZM147.08 3.64L147.04 3.08L150.82 3.08L150.82 3.08Q152.14 3.08 153.01 3.19L153.01 3.19L153.01 3.19Q153.83 3.29 154.52 3.69L154.52 3.69L154.52 3.69Q155.47 4.27 155.98 5.24L155.98 5.24L155.98 5.24Q156.47 6.21 156.47 7.39L156.47 7.39L156.47 7.39Q156.47 8.05 156.32 8.65L156.32 8.65L156.32 8.65Q156.17 9.29 155.78 9.98L155.78 9.98L155.78 9.98Q155.35 10.73 154.79 11.21L154.79 11.21L154.79 11.21Q154.16 11.76 153.19 12.08L153.19 12.08L153.19 12.08Q152.18 12.41 150.91 12.41L150.91 12.41L147.29 12.41L147.28 11.87L147.66 11.87L147.66 11.87Q148.18 11.87 148.28 11.79L148.28 11.79L148.28 11.79Q148.39 11.70 148.39 11.25L148.39 11.25L148.39 4.14L148.39 4.14Q148.39 3.77 148.29 3.71L148.29 3.71L148.29 3.71Q148.18 3.64 147.67 3.64L147.67 3.64L147.08 3.64ZM149.52 4.39L149.52 11.22L149.52 11.22Q149.52 11.67 149.69 11.77L149.69 11.77L149.69 11.77Q149.84 11.87 150.71 11.87L150.71 11.87L150.71 11.87Q151.76 11.87 152.56 11.61L152.56 11.61L152.56 11.61Q153.41 11.35 153.85 10.99L153.85 10.99L153.85 10.99Q154.34 10.58 154.65 10.05L154.65 10.05L154.65 10.05Q154.95 9.52 155.08 8.96L155.08 8.96L155.08 8.96Q155.20 8.41 155.20 7.82L155.20 7.82L155.20 7.82Q155.20 7.03 154.94 6.34L154.94 6.34L154.94 6.34Q154.67 5.65 154.14 5.05L154.14 5.05L154.14 5.05Q153.61 4.46 152.70 4.09L152.70 4.09L152.70 4.09Q151.78 3.73 150.62 3.73L150.62 3.73L150.10 3.73L150.10 3.73Q149.73 3.73 149.63 3.85L149.63 3.85L149.63 3.85Q149.52 3.99 149.52 4.39L149.52 4.39ZM164.45 3.64L164.44 3.08L171.65 3.08L171.65 3.08Q171.66 4.14 171.72 5.28L171.72 5.28L171.17 5.30L171.17 5.30Q171.16 4.66 171.10 4.25L171.10 4.25L171.10 4.25Q171.06 3.89 171.01 3.80L171.01 3.80L171.01 3.80Q170.95 3.71 170.84 3.69L170.84 3.69L170.84 3.69Q170.74 3.68 170.15 3.68L170.15 3.68L167.77 3.68L167.77 3.68Q167.23 3.68 167.08 3.77L167.08 3.77L167.08 3.77Q166.96 3.86 166.96 4.33L166.96 4.33L166.96 6.28L166.96 6.28Q166.96 6.69 167.02 6.76L167.02 6.76L167.02 6.76Q167.08 6.84 167.43 6.84L167.43 6.84L169.54 6.84L169.54 6.84Q169.90 6.84 169.98 6.73L169.98 6.73L169.98 6.73Q170.06 6.63 170.07 6.14L170.07 6.14L170.07 5.61L170.58 5.63L170.58 8.97L170.07 8.97L170.07 8.24L170.07 8.24Q170.07 7.66 170.00 7.57L170.00 7.57L170.00 7.57Q169.91 7.46 169.57 7.46L169.57 7.46L167.47 7.46L167.47 7.46Q167.13 7.46 167.05 7.54L167.05 7.54L167.05 7.54Q166.96 7.63 166.96 7.89L166.96 7.89L166.96 11.20L166.96 11.20Q166.96 11.57 167.05 11.67L167.05 11.67L167.05 11.67Q167.13 11.77 167.41 11.77L167.41 11.77L167.41 11.77Q170.32 11.75 170.85 11.69L170.85 11.69L170.85 11.69Q171.37 11.63 171.45 11.38L171.45 11.38L171.46 11.36L171.47 11.35L171.69 10.17L172.17 10.25L171.82 12.41L164.72 12.41L164.72 11.87L165.09 11.87L165.09 11.87Q165.65 11.87 165.73 11.80L165.73 11.80L165.73 11.80Q165.83 11.72 165.83 11.33L165.83 11.33L165.83 4.24L165.83 4.24Q165.83 3.82 165.68 3.73L165.68 3.73L165.68 3.73Q165.50 3.64 164.85 3.64L164.85 3.64L164.45 3.64ZM183.77 12.41L180.04 12.41L180.04 11.87L180.48 11.87L180.48 11.87Q180.86 11.87 180.91 11.81L180.91 11.81L180.91 11.81Q180.98 11.74 180.99 11.46L180.99 11.46L180.99 4.14L180.99 4.14Q180.99 3.81 180.90 3.72L180.90 3.72L180.90 3.72Q180.82 3.64 180.46 3.64L180.46 3.64L180.09 3.64L180.10 3.08L182.98 3.08L182.98 3.08Q184.13 3.08 184.78 3.19L184.78 3.19L184.78 3.19Q185.38 3.28 185.86 3.68L185.86 3.68L185.86 3.68Q187.04 4.64 187.04 6.19L187.04 6.19L187.04 6.19Q187.04 7.23 186.28 7.98L186.28 7.98L186.28 7.98Q185.50 8.74 184.09 8.73L184.09 8.73L184.09 8.73Q183.92 8.73 183.50 8.70L183.50 8.70L183.50 8.70Q183.39 8.69 182.97 8.62L182.97 8.62L182.97 8.62Q182.64 8.55 182.54 8.54L182.54 8.54L182.54 8.54Q182.25 8.47 182.23 8.46L182.23 8.46L182.12 8.44L182.12 11.46L182.12 11.46Q182.12 11.74 182.25 11.81L182.25 11.81L182.25 11.81Q182.36 11.87 183.07 11.87L183.07 11.87L183.77 11.87L183.77 12.41ZM182.12 4.28L182.12 8.02L182.12 8.02Q182.46 8.29 183.44 8.29L183.44 8.29L183.44 8.29Q184.57 8.29 185.14 7.75L185.14 7.75L185.14 7.75Q185.73 7.21 185.73 6.16L185.73 6.16L185.73 6.16Q185.73 4.98 184.82 4.31L184.82 4.31L184.82 4.31Q183.93 3.64 182.54 3.64L182.54 3.64L182.54 3.64Q182.29 3.64 182.21 3.75L182.21 3.75L182.21 3.75Q182.12 3.84 182.12 4.28L182.12 4.28ZM195.04 3.64L195.02 3.08L202.23 3.08L202.23 3.08Q202.25 4.14 202.30 5.28L202.30 5.28L201.76 5.30L201.76 5.30Q201.74 4.66 201.69 4.25L201.69 4.25L201.69 4.25Q201.65 3.89 201.59 3.80L201.59 3.80L201.59 3.80Q201.54 3.71 201.42 3.69L201.42 3.69L201.42 3.69Q201.33 3.68 200.74 3.68L200.74 3.68L198.36 3.68L198.36 3.68Q197.81 3.68 197.67 3.77L197.67 3.77L197.67 3.77Q197.54 3.86 197.54 4.33L197.54 4.33L197.54 6.28L197.54 6.28Q197.54 6.69 197.60 6.76L197.60 6.76L197.60 6.76Q197.67 6.84 198.01 6.84L198.01 6.84L200.12 6.84L200.12 6.84Q200.48 6.84 200.57 6.73L200.57 6.73L200.57 6.73Q200.65 6.63 200.66 6.14L200.66 6.14L200.66 5.61L201.17 5.63L201.17 8.97L200.66 8.97L200.66 8.24L200.66 8.24Q200.66 7.66 200.58 7.57L200.58 7.57L200.58 7.57Q200.50 7.46 200.15 7.46L200.15 7.46L198.05 7.46L198.05 7.46Q197.72 7.46 197.63 7.54L197.63 7.54L197.63 7.54Q197.54 7.63 197.54 7.89L197.54 7.89L197.54 11.20L197.54 11.20Q197.54 11.57 197.63 11.67L197.63 11.67L197.63 11.67Q197.72 11.77 197.99 11.77L197.99 11.77L197.99 11.77Q200.91 11.75 201.43 11.69L201.43 11.69L201.43 11.69Q201.95 11.63 202.04 11.38L202.04 11.38L202.04 11.36L202.05 11.35L202.28 10.17L202.75 10.25L202.41 12.41L195.30 12.41L195.30 11.87L195.67 11.87L195.67 11.87Q196.23 11.87 196.31 11.80L196.31 11.80L196.31 11.80Q196.41 11.72 196.41 11.33L196.41 11.33L196.41 4.24L196.41 4.24Q196.41 3.82 196.26 3.73L196.26 3.73L196.26 3.73Q196.09 3.64 195.43 3.64L195.43 3.64L195.04 3.64ZM210.64 3.64L210.63 3.08L212.80 3.08L218.54 10.48L218.54 4.14L218.54 4.14Q218.54 3.81 218.38 3.72L218.38 3.72L218.38 3.72Q218.23 3.64 217.77 3.64L217.77 3.64L217.28 3.64L217.31 3.08L220.29 3.08L220.29 3.64L219.97 3.64L219.97 3.64Q219.50 3.64 219.35 3.75L219.35 3.75L219.35 3.75Q219.20 3.86 219.20 4.25L219.20 4.25L219.20 12.32L219.20 12.47L219.20 12.47Q219.20 12.52 219.19 12.57L219.19 12.57L219.19 12.57Q219.17 12.61 219.14 12.64L219.14 12.64L219.14 12.64Q219.13 12.65 219.07 12.65L219.07 12.65L218.88 12.65L218.82 12.65L218.79 12.65L218.76 12.64L218.76 12.64Q218.74 12.64 218.72 12.63L218.72 12.63L218.72 12.63Q218.71 12.61 218.71 12.60L218.71 12.60L218.71 12.60Q218.71 12.58 218.70 12.57L218.70 12.57L218.70 12.57Q218.67 12.54 218.64 12.50L218.64 12.50L218.64 12.50Q218.63 12.48 218.61 12.45L218.61 12.45L218.61 12.45Q218.59 12.41 218.57 12.40L218.57 12.40L212.47 4.56L212.54 11.22L212.54 11.22Q212.54 11.67 212.70 11.77L212.70 11.77L212.70 11.77Q212.86 11.87 213.57 11.87L213.57 11.87L213.81 11.87L213.81 12.41L210.87 12.41L210.87 11.87L211.29 11.87L211.29 11.87Q211.67 11.87 211.78 11.76L211.78 11.76L211.78 11.76Q211.87 11.66 211.88 11.25L211.88 11.25L211.88 3.80L211.74 3.64L210.64 3.64ZM228.07 3.64L228.03 3.08L231.81 3.08L231.81 3.08Q233.13 3.08 233.99 3.19L233.99 3.19L233.99 3.19Q234.81 3.29 235.50 3.69L235.50 3.69L235.50 3.69Q236.46 4.27 236.96 5.24L236.96 5.24L236.96 5.24Q237.45 6.21 237.45 7.39L237.45 7.39L237.45 7.39Q237.45 8.05 237.31 8.65L237.31 8.65L237.31 8.65Q237.15 9.29 236.76 9.98L236.76 9.98L236.76 9.98Q236.33 10.73 235.77 11.21L235.77 11.21L235.77 11.21Q235.14 11.76 234.17 12.08L234.17 12.08L234.17 12.08Q233.17 12.41 231.90 12.41L231.90 12.41L228.28 12.41L228.27 11.87L228.64 11.87L228.64 11.87Q229.16 11.87 229.26 11.79L229.26 11.79L229.26 11.79Q229.37 11.70 229.37 11.25L229.37 11.25L229.37 4.14L229.37 4.14Q229.37 3.77 229.28 3.71L229.28 3.71L229.28 3.71Q229.17 3.64 228.66 3.64L228.66 3.64L228.07 3.64ZM230.51 4.39L230.51 11.22L230.51 11.22Q230.51 11.67 230.67 11.77L230.67 11.77L230.67 11.77Q230.83 11.87 231.70 11.87L231.70 11.87L231.70 11.87Q232.75 11.87 233.54 11.61L233.54 11.61L233.54 11.61Q234.40 11.35 234.83 10.99L234.83 10.99L234.83 10.99Q235.33 10.58 235.63 10.05L235.63 10.05L235.63 10.05Q235.94 9.52 236.07 8.96L236.07 8.96L236.07 8.96Q236.19 8.41 236.19 7.82L236.19 7.82L236.19 7.82Q236.19 7.03 235.92 6.34L235.92 6.34L235.92 6.34Q235.66 5.65 235.13 5.05L235.13 5.05L235.13 5.05Q234.60 4.46 233.69 4.09L233.69 4.09L233.69 4.09Q232.76 3.73 231.60 3.73L231.60 3.73L231.08 3.73L231.08 3.73Q230.72 3.73 230.62 3.85L230.62 3.85L230.62 3.85Q230.51 3.99 230.51 4.39L230.51 4.39ZM245.40 10.04L245.40 10.04L245.89 9.98L246.07 10.85L246.07 10.85Q246.18 11.33 246.25 11.41L246.25 11.41L246.25 11.41Q246.32 11.49 246.73 11.64L246.73 11.64L246.73 11.64Q247.57 11.95 248.47 11.95L248.47 11.95L248.47 11.95Q249.25 11.95 249.79 11.49L249.79 11.49L249.79 11.49Q250.33 11.04 250.33 10.26L250.33 10.26L250.33 10.26Q250.33 9.65 249.87 9.21L249.87 9.21L249.87 9.21Q249.39 8.76 248.53 8.30L248.53 8.30L247.96 7.98L247.96 7.98Q247.21 7.55 246.98 7.36L246.98 7.36L246.98 7.36Q246.62 7.08 246.31 6.59L246.31 6.59L246.31 6.59Q246.00 6.10 246.00 5.46L246.00 5.46L246.00 5.46Q246.00 4.39 246.84 3.68L246.84 3.68L246.84 3.68Q247.68 2.97 248.79 2.97L248.79 2.97L248.79 2.97Q249.07 2.97 249.42 3.04L249.42 3.04L249.42 3.04Q249.61 3.08 249.95 3.17L249.95 3.17L250.19 3.25L250.19 3.25Q250.28 3.25 250.33 3.16L250.33 3.16L250.33 3.16Q250.38 3.05 250.38 2.98L250.38 2.98L250.39 2.88L250.87 2.85L251.08 5.41L250.58 5.43L250.46 4.18L250.46 4.18Q249.71 3.62 248.55 3.62L248.55 3.62L248.55 3.62Q247.91 3.62 247.40 4.05L247.40 4.05L247.40 4.05Q246.92 4.47 246.92 5.12L246.92 5.12L246.92 5.12Q246.92 5.72 247.37 6.17L247.37 6.17L247.37 6.17Q247.80 6.60 248.67 7.08L248.67 7.08L249.44 7.50L249.44 7.50Q250.39 8.03 250.93 8.59L250.93 8.59L250.93 8.59Q251.46 9.15 251.46 9.92L251.46 9.92L251.46 9.92Q251.46 10.99 250.61 11.76L250.61 11.76L250.61 11.76Q249.74 12.54 248.28 12.54L248.28 12.54L248.28 12.54Q247.72 12.54 247.22 12.41L247.22 12.41L247.22 12.41Q246.72 12.29 246.66 12.29L246.66 12.29L246.66 12.29Q246.41 12.29 246.41 12.58L246.41 12.58L246.42 12.76L245.94 12.80L245.94 12.80Q245.88 12.41 245.40 10.04ZM269.60 3.64L269.21 3.64L269.21 3.08L272.58 3.08L272.59 3.64L272.06 3.64L272.06 3.64Q271.63 3.64 271.47 3.73L271.47 3.73L271.47 3.73Q271.30 3.83 271.30 4.16L271.30 4.16L271.30 9.33L271.30 9.33Q271.30 9.63 271.33 9.78L271.33 9.78L271.33 9.78Q271.37 10.01 271.54 10.41L271.54 10.41L271.54 10.41Q271.71 10.80 272.00 11.09L272.00 11.09L272.00 11.09Q272.31 11.40 272.87 11.63L272.87 11.63L272.87 11.63Q273.44 11.85 274.22 11.85L274.22 11.85L274.22 11.85Q275.08 11.85 275.63 11.67L275.63 11.67L275.63 11.67Q276.19 11.48 276.49 11.22L276.49 11.22L276.49 11.22Q276.80 10.96 276.94 10.49L276.94 10.49L276.94 10.49Q277.12 9.95 277.12 9.66L277.12 9.66L277.12 9.66Q277.15 9.18 277.16 8.67L277.16 8.67L277.16 4.14L277.16 4.14Q277.16 3.81 277.01 3.72L277.01 3.72L277.01 3.72Q276.86 3.64 276.38 3.64L276.38 3.64L275.89 3.64L275.92 3.08L278.55 3.08L278.55 3.64L278.36 3.64L278.36 3.64Q278.04 3.64 277.93 3.75L277.93 3.75L277.93 3.75Q277.81 3.86 277.81 4.25L277.81 4.25L277.81 9.22L277.81 9.22Q277.81 12.67 274.22 12.67L274.22 12.67L274.22 12.67Q272.06 12.67 271.11 11.76L271.11 11.76L271.11 11.76Q270.17 10.86 270.17 9.41L270.17 9.41L270.17 4.14L270.17 4.14Q270.17 3.81 270.07 3.72L270.07 3.72L270.07 3.72Q269.96 3.64 269.60 3.64L269.60 3.64ZM290.01 12.41L286.29 12.41L286.29 11.87L286.73 11.87L286.73 11.87Q287.10 11.87 287.16 11.81L287.16 11.81L287.16 11.81Q287.23 11.74 287.23 11.46L287.23 11.46L287.23 4.14L287.23 4.14Q287.23 3.81 287.15 3.72L287.15 3.72L287.15 3.72Q287.06 3.64 286.70 3.64L286.70 3.64L286.33 3.64L286.34 3.08L289.23 3.08L289.23 3.08Q290.38 3.08 291.03 3.19L291.03 3.19L291.03 3.19Q291.63 3.28 292.10 3.68L292.10 3.68L292.10 3.68Q293.29 4.64 293.29 6.19L293.29 6.19L293.29 6.19Q293.29 7.23 292.52 7.98L292.52 7.98L292.52 7.98Q291.74 8.74 290.34 8.73L290.34 8.73L290.34 8.73Q290.17 8.73 289.75 8.70L289.75 8.70L289.75 8.70Q289.64 8.69 289.21 8.62L289.21 8.62L289.21 8.62Q288.88 8.55 288.78 8.54L288.78 8.54L288.78 8.54Q288.49 8.47 288.48 8.46L288.48 8.46L288.36 8.44L288.36 11.46L288.36 11.46Q288.36 11.74 288.49 11.81L288.49 11.81L288.49 11.81Q288.60 11.87 289.32 11.87L289.32 11.87L290.01 11.87L290.01 12.41ZM288.36 4.28L288.36 8.02L288.36 8.02Q288.71 8.29 289.68 8.29L289.68 8.29L289.68 8.29Q290.81 8.29 291.39 7.75L291.39 7.75L291.39 7.75Q291.98 7.21 291.98 6.16L291.98 6.16L291.98 6.16Q291.98 4.98 291.07 4.31L291.07 4.31L291.07 4.31Q290.17 3.64 288.78 3.64L288.78 3.64L288.78 3.64Q288.53 3.64 288.45 3.75L288.45 3.75L288.45 3.75Q288.37 3.84 288.36 4.28L288.36 4.28ZM301.65 7.83L301.65 7.83L301.65 7.83Q301.65 6.62 302.05 5.68L302.05 5.68L302.05 5.68Q302.47 4.72 303.16 4.12L303.16 4.12L303.16 4.12Q303.85 3.51 304.71 3.19L304.71 3.19L304.71 3.19Q305.55 2.88 306.50 2.88L306.50 2.88L306.50 2.88Q307.76 2.88 308.81 3.40L308.81 3.40L308.81 3.40Q309.89 3.93 310.60 5.07L310.60 5.07L310.60 5.07Q311.30 6.17 311.31 7.75L311.31 7.75L311.31 7.75Q311.31 8.70 311.00 9.54L311.00 9.54L311.00 9.54Q310.69 10.38 310.09 11.10L310.09 11.10L310.09 11.10Q309.48 11.81 308.55 12.22L308.55 12.22L308.55 12.22Q307.58 12.63 306.39 12.64L306.39 12.64L306.39 12.64Q305.26 12.64 304.32 12.23L304.32 12.23L304.32 12.23Q303.39 11.83 302.83 11.14L302.83 11.14L302.83 11.14Q302.25 10.45 301.96 9.60L301.96 9.60L301.96 9.60Q301.65 8.72 301.65 7.83ZM302.91 7.38L302.91 7.38L302.91 7.38Q302.91 8.52 303.34 9.60L303.34 9.60L303.34 9.60Q303.74 10.64 304.67 11.33L304.67 11.33L304.67 11.33Q305.58 12.03 306.77 12.04L306.77 12.04L306.77 12.04Q308.14 12.04 309.08 11.01L309.08 11.01L309.08 11.01Q310.03 9.97 310.03 8.10L310.03 8.10L310.03 8.10Q310.03 5.99 308.87 4.72L308.87 4.72L308.87 4.72Q307.72 3.46 306.21 3.45L306.21 3.45L306.21 3.45Q305.69 3.45 305.15 3.65L305.15 3.65L305.15 3.65Q304.60 3.85 304.10 4.25L304.10 4.25L304.10 4.25Q303.55 4.68 303.23 5.48L303.23 5.48L303.23 5.48Q302.91 6.27 302.91 7.38ZM319.44 3.64L319.42 3.08L321.60 3.08L327.33 10.48L327.33 4.14L327.33 4.14Q327.33 3.81 327.18 3.72L327.18 3.72L327.18 3.72Q327.02 3.64 326.57 3.64L326.57 3.64L326.07 3.64L326.10 3.08L329.08 3.08L329.08 3.64L328.76 3.64L328.76 3.64Q328.30 3.64 328.15 3.75L328.15 3.75L328.15 3.75Q328.00 3.86 328.00 4.25L328.00 4.25L328.00 12.32L328.00 12.47L328.00 12.47Q328.00 12.52 327.98 12.57L327.98 12.57L327.98 12.57Q327.97 12.61 327.93 12.64L327.93 12.64L327.93 12.64Q327.92 12.65 327.87 12.65L327.87 12.65L327.67 12.65L327.61 12.65L327.58 12.65L327.56 12.64L327.56 12.64Q327.53 12.64 327.52 12.63L327.52 12.63L327.52 12.63Q327.50 12.61 327.50 12.60L327.50 12.60L327.50 12.60Q327.50 12.58 327.49 12.57L327.49 12.57L327.49 12.57Q327.46 12.54 327.43 12.50L327.43 12.50L327.43 12.50Q327.42 12.48 327.40 12.45L327.40 12.45L327.40 12.45Q327.38 12.41 327.37 12.40L327.37 12.40L321.26 4.56L321.33 11.22L321.33 11.22Q321.33 11.67 321.49 11.77L321.49 11.77L321.49 11.77Q321.65 11.87 322.36 11.87L322.36 11.87L322.60 11.87L322.60 12.41L319.66 12.41L319.66 11.87L320.09 11.87L320.09 11.87Q320.46 11.87 320.57 11.76L320.57 11.76L320.57 11.76Q320.67 11.66 320.67 11.25L320.67 11.25L320.67 3.80L320.53 3.64L319.44 3.64ZM346.77 7.83L346.77 7.83L346.77 7.83Q346.77 6.62 347.18 5.68L347.18 5.68L347.18 5.68Q347.59 4.72 348.28 4.12L348.28 4.12L348.28 4.12Q348.97 3.51 349.84 3.19L349.84 3.19L349.84 3.19Q350.68 2.88 351.63 2.88L351.63 2.88L351.63 2.88Q352.88 2.88 353.94 3.40L353.94 3.40L353.94 3.40Q355.02 3.93 355.73 5.07L355.73 5.07L355.73 5.07Q356.43 6.17 356.43 7.75L356.43 7.75L356.43 7.75Q356.43 8.70 356.13 9.54L356.13 9.54L356.13 9.54Q355.82 10.38 355.21 11.10L355.21 11.10L355.21 11.10Q354.61 11.81 353.67 12.22L353.67 12.22L353.67 12.22Q352.71 12.63 351.52 12.64L351.52 12.64L351.52 12.64Q350.38 12.64 349.45 12.23L349.45 12.23L349.45 12.23Q348.51 11.83 347.95 11.14L347.95 11.14L347.95 11.14Q347.38 10.45 347.08 9.60L347.08 9.60L347.08 9.60Q346.77 8.72 346.77 7.83ZM348.03 7.38L348.03 7.38L348.03 7.38Q348.03 8.52 348.46 9.60L348.46 9.60L348.46 9.60Q348.87 10.64 349.79 11.33L349.79 11.33L349.79 11.33Q350.70 12.03 351.89 12.04L351.89 12.04L351.89 12.04Q353.27 12.04 354.20 11.01L354.20 11.01L354.20 11.01Q355.15 9.97 355.15 8.10L355.15 8.10L355.15 8.10Q355.15 5.99 353.99 4.72L353.99 4.72L353.99 4.72Q352.84 3.46 351.33 3.45L351.33 3.45L351.33 3.45Q350.81 3.45 350.27 3.65L350.27 3.65L350.27 3.65Q349.73 3.85 349.22 4.25L349.22 4.25L349.22 4.25Q348.67 4.68 348.35 5.48L348.35 5.48L348.35 5.48Q348.03 6.27 348.03 7.38ZM364.93 3.64L364.55 3.64L364.55 3.08L367.91 3.08L367.92 3.64L367.39 3.64L367.39 3.64Q366.96 3.64 366.80 3.73L366.80 3.73L366.80 3.73Q366.63 3.83 366.63 4.16L366.63 4.16L366.63 9.33L366.63 9.33Q366.63 9.63 366.67 9.78L366.67 9.78L366.67 9.78Q366.71 10.01 366.87 10.41L366.87 10.41L366.87 10.41Q367.04 10.80 367.34 11.09L367.34 11.09L367.34 11.09Q367.64 11.40 368.20 11.63L368.20 11.63L368.20 11.63Q368.78 11.85 369.56 11.85L369.56 11.85L369.56 11.85Q370.41 11.85 370.96 11.67L370.96 11.67L370.96 11.67Q371.52 11.48 371.83 11.22L371.83 11.22L371.83 11.22Q372.13 10.96 372.28 10.49L372.28 10.49L372.28 10.49Q372.45 9.95 372.46 9.66L372.46 9.66L372.46 9.66Q372.48 9.18 372.49 8.67L372.49 8.67L372.49 4.14L372.49 4.14Q372.49 3.81 372.35 3.72L372.35 3.72L372.35 3.72Q372.20 3.64 371.72 3.64L371.72 3.64L371.23 3.64L371.25 3.08L373.88 3.08L373.88 3.64L373.69 3.64L373.69 3.64Q373.37 3.64 373.26 3.75L373.26 3.75L373.26 3.75Q373.15 3.86 373.15 4.25L373.15 4.25L373.15 9.22L373.15 9.22Q373.15 12.67 369.56 12.67L369.56 12.67L369.56 12.67Q367.39 12.67 366.44 11.76L366.44 11.76L366.44 11.76Q365.50 10.86 365.50 9.41L365.50 9.41L365.50 4.14L365.50 4.14Q365.50 3.81 365.40 3.72L365.40 3.72L365.40 3.72Q365.29 3.64 364.93 3.64L364.93 3.64ZM381.96 3.64L381.57 3.64L381.58 3.08L384.80 3.08L384.80 3.08Q385.94 3.08 386.54 3.21L386.54 3.21L386.54 3.21Q387.18 3.37 387.65 3.75L387.65 3.75L387.65 3.75Q388.65 4.57 388.65 5.71L388.65 5.71L388.65 5.71Q388.65 6.43 388.18 7.04L388.18 7.04L388.18 7.04Q387.69 7.66 386.65 7.92L386.65 7.92L389.34 11.49L389.34 11.49Q389.65 11.87 389.94 11.87L389.94 11.87L390.54 11.87L390.57 12.41L388.54 12.41L385.55 8.10L385.38 8.10L385.38 8.10Q385.33 8.10 385.28 8.11L385.28 8.11L385.28 8.11Q385.23 8.11 385.21 8.11L385.21 8.11L385.21 8.11Q384.33 8.11 383.93 8.03L383.93 8.03L383.93 11.46L383.93 11.46Q383.93 11.76 384.08 11.81L384.08 11.81L384.08 11.81Q384.20 11.87 384.90 11.87L384.90 11.87L385.62 11.87L385.59 12.41L381.86 12.41L381.86 11.87L382.18 11.87L382.18 11.87Q382.65 11.87 382.72 11.81L382.72 11.81L382.72 11.81Q382.80 11.74 382.80 11.46L382.80 11.46L382.80 4.14L382.80 4.14Q382.80 3.82 382.61 3.73L382.61 3.73L382.61 3.73Q382.38 3.64 381.96 3.64L381.96 3.64ZM383.93 4.28L383.93 7.57L383.93 7.57Q384.12 7.70 384.83 7.71L384.83 7.71L384.83 7.71Q386.10 7.71 386.68 7.27L386.68 7.27L386.68 7.27Q387.27 6.84 387.27 5.92L387.27 5.92L387.27 5.92Q387.27 4.92 386.50 4.27L386.50 4.27L386.50 4.27Q385.74 3.64 384.36 3.64L384.36 3.64L384.36 3.64Q384.10 3.64 384.02 3.75L384.02 3.75L384.02 3.75Q383.94 3.84 383.93 4.28L383.93 4.28ZM398.30 10.04L398.30 10.04L398.79 9.98L398.97 10.85L398.97 10.85Q399.08 11.33 399.15 11.41L399.15 11.41L399.15 11.41Q399.22 11.49 399.63 11.64L399.63 11.64L399.63 11.64Q400.47 11.95 401.37 11.95L401.37 11.95L401.37 11.95Q402.15 11.95 402.69 11.49L402.69 11.49L402.69 11.49Q403.22 11.04 403.22 10.26L403.22 10.26L403.22 10.26Q403.22 9.65 402.77 9.21L402.77 9.21L402.77 9.21Q402.29 8.76 401.43 8.30L401.43 8.30L400.86 7.98L400.86 7.98Q400.11 7.55 399.88 7.36L399.88 7.36L399.88 7.36Q399.52 7.08 399.21 6.59L399.21 6.59L399.21 6.59Q398.90 6.10 398.90 5.46L398.90 5.46L398.90 5.46Q398.90 4.39 399.74 3.68L399.74 3.68L399.74 3.68Q400.58 2.97 401.69 2.97L401.69 2.97L401.69 2.97Q401.97 2.97 402.32 3.04L402.32 3.04L402.32 3.04Q402.51 3.08 402.85 3.17L402.85 3.17L403.09 3.25L403.09 3.25Q403.18 3.25 403.22 3.16L403.22 3.16L403.22 3.16Q403.28 3.05 403.28 2.98L403.28 2.98L403.29 2.88L403.77 2.85L403.98 5.41L403.48 5.43L403.35 4.18L403.35 4.18Q402.61 3.62 401.45 3.62L401.45 3.62L401.45 3.62Q400.80 3.62 400.30 4.05L400.30 4.05L400.30 4.05Q399.82 4.47 399.82 5.12L399.82 5.12L399.82 5.12Q399.82 5.72 400.27 6.17L400.27 6.17L400.27 6.17Q400.70 6.60 401.57 7.08L401.57 7.08L402.34 7.50L402.34 7.50Q403.29 8.03 403.83 8.59L403.83 8.59L403.83 8.59Q404.36 9.15 404.36 9.92L404.36 9.92L404.36 9.92Q404.36 10.99 403.50 11.76L403.50 11.76L403.50 11.76Q402.64 12.54 401.18 12.54L401.18 12.54L401.18 12.54Q400.62 12.54 400.12 12.41L400.12 12.41L400.12 12.41Q399.62 12.29 399.56 12.29L399.56 12.29L399.56 12.29Q399.31 12.29 399.31 12.58L399.31 12.58L399.32 12.76L398.84 12.80L398.84 12.80Q398.78 12.41 398.30 10.04ZM412.56 3.64L412.54 3.08L419.75 3.08L419.75 3.08Q419.77 4.14 419.82 5.28L419.82 5.28L419.28 5.30L419.28 5.30Q419.26 4.66 419.21 4.25L419.21 4.25L419.21 4.25Q419.17 3.89 419.11 3.80L419.11 3.80L419.11 3.80Q419.06 3.71 418.94 3.69L418.94 3.69L418.94 3.69Q418.84 3.68 418.26 3.68L418.26 3.68L415.88 3.68L415.88 3.68Q415.33 3.68 415.19 3.77L415.19 3.77L415.19 3.77Q415.06 3.86 415.06 4.33L415.06 4.33L415.06 6.28L415.06 6.28Q415.06 6.69 415.12 6.76L415.12 6.76L415.12 6.76Q415.19 6.84 415.53 6.84L415.53 6.84L417.64 6.84L417.64 6.84Q418.00 6.84 418.09 6.73L418.09 6.73L418.09 6.73Q418.17 6.63 418.17 6.14L418.17 6.14L418.17 5.61L418.69 5.63L418.69 8.97L418.17 8.97L418.17 8.24L418.17 8.24Q418.17 7.66 418.10 7.57L418.10 7.57L418.10 7.57Q418.02 7.46 417.67 7.46L417.67 7.46L415.57 7.46L415.57 7.46Q415.24 7.46 415.15 7.54L415.15 7.54L415.15 7.54Q415.06 7.63 415.06 7.89L415.06 7.89L415.06 11.20L415.06 11.20Q415.06 11.57 415.15 11.67L415.15 11.67L415.15 11.67Q415.24 11.77 415.51 11.77L415.51 11.77L415.51 11.77Q418.43 11.75 418.95 11.69L418.95 11.69L418.95 11.69Q419.47 11.63 419.56 11.38L419.56 11.38L419.56 11.36L419.57 11.35L419.79 10.17L420.27 10.25L419.92 12.41L412.82 12.41L412.82 11.87L413.19 11.87L413.19 11.87Q413.75 11.87 413.83 11.80L413.83 11.80L413.83 11.80Q413.93 11.72 413.93 11.33L413.93 11.33L413.93 4.24L413.93 4.24Q413.93 3.82 413.78 3.73L413.78 3.73L413.78 3.73Q413.61 3.64 412.95 3.64L412.95 3.64L412.56 3.64ZM428.64 3.64L428.15 3.64L428.16 3.08L431.75 3.08L431.75 3.64L431.12 3.64L431.12 3.64Q430.74 3.64 430.63 3.72L430.63 3.72L430.63 3.72Q430.51 3.80 430.51 4.16L430.51 4.16L430.51 11.22L430.51 11.22Q430.51 11.57 430.60 11.67L430.60 11.67L430.60 11.67Q430.68 11.77 430.98 11.77L430.98 11.77L430.98 11.77Q433.85 11.74 434.51 11.63L434.51 11.63L434.51 11.63Q434.72 11.61 434.80 11.39L434.80 11.39L434.80 11.39Q434.88 11.17 435.08 10.05L435.08 10.05L435.57 10.08L435.11 12.41L428.35 12.41L428.33 11.87L428.72 11.87L428.72 11.87Q429.23 11.87 429.30 11.80L429.30 11.80L429.30 11.80Q429.38 11.72 429.39 11.33L429.39 11.33L429.39 4.09L429.39 4.09Q429.39 3.80 429.23 3.72L429.23 3.72L429.23 3.72Q429.08 3.64 428.64 3.64L428.64 3.64ZM443.80 3.64L443.30 3.64L443.30 3.08L446.82 3.08L446.80 3.64L446.07 3.64L446.07 3.64Q445.73 3.64 445.73 3.82L445.73 3.82L445.73 3.82Q445.73 3.98 445.92 4.48L445.92 4.48L448.53 10.94L451.47 4.18L451.47 4.18Q451.53 3.97 451.54 3.92L451.54 3.92L451.54 3.92Q451.54 3.79 451.44 3.74L451.44 3.74L451.44 3.74Q451.34 3.68 451.20 3.65L451.20 3.65L451.20 3.65Q451.12 3.64 450.85 3.64L450.85 3.64L450.41 3.64L450.38 3.08L453.22 3.08L453.19 3.64L452.79 3.64L452.79 3.64Q452.46 3.64 452.31 3.83L452.31 3.83L452.31 3.83Q452.22 3.93 451.76 4.94L451.76 4.94L451.76 4.94Q451.55 5.46 451.48 5.57L451.48 5.57L448.35 12.63L448.11 12.63L444.86 4.73L444.86 4.73Q444.54 3.93 444.40 3.79L444.40 3.79L444.40 3.79Q444.24 3.63 443.80 3.64L443.80 3.64ZM460.97 3.64L460.95 3.08L468.17 3.08L468.17 3.08Q468.18 4.14 468.23 5.28L468.23 5.28L467.69 5.30L467.69 5.30Q467.67 4.66 467.62 4.25L467.62 4.25L467.62 4.25Q467.58 3.89 467.52 3.80L467.52 3.80L467.52 3.80Q467.47 3.71 467.35 3.69L467.35 3.69L467.35 3.69Q467.26 3.68 466.67 3.68L466.67 3.68L464.29 3.68L464.29 3.68Q463.74 3.68 463.60 3.77L463.60 3.77L463.60 3.77Q463.48 3.86 463.48 4.33L463.48 4.33L463.48 6.28L463.48 6.28Q463.48 6.69 463.53 6.76L463.53 6.76L463.53 6.76Q463.60 6.84 463.94 6.84L463.94 6.84L466.05 6.84L466.05 6.84Q466.42 6.84 466.50 6.73L466.50 6.73L466.50 6.73Q466.58 6.63 466.59 6.14L466.59 6.14L466.59 5.61L467.10 5.63L467.10 8.97L466.59 8.97L466.59 8.24L466.59 8.24Q466.59 7.66 466.51 7.57L466.51 7.57L466.51 7.57Q466.43 7.46 466.08 7.46L466.08 7.46L463.98 7.46L463.98 7.46Q463.65 7.46 463.56 7.54L463.56 7.54L463.56 7.54Q463.48 7.63 463.48 7.89L463.48 7.89L463.48 11.20L463.48 11.20Q463.48 11.57 463.56 11.67L463.56 11.67L463.56 11.67Q463.65 11.77 463.92 11.77L463.92 11.77L463.92 11.77Q466.84 11.75 467.37 11.69L467.37 11.69L467.37 11.69Q467.89 11.63 467.97 11.38L467.97 11.38L467.97 11.36L467.98 11.35L468.21 10.17L468.69 10.25L468.34 12.41L461.23 12.41L461.23 11.87L461.60 11.87L461.60 11.87Q462.16 11.87 462.25 11.80L462.25 11.80L462.25 11.80Q462.34 11.72 462.34 11.33L462.34 11.33L462.34 4.24L462.34 4.24Q462.34 3.82 462.19 3.73L462.19 3.73L462.19 3.73Q462.02 3.64 461.36 3.64L461.36 3.64L460.97 3.64ZM476.53 10.04L476.53 10.04L477.03 9.98L477.21 10.85L477.21 10.85Q477.32 11.33 477.39 11.41L477.39 11.41L477.39 11.41Q477.46 11.49 477.87 11.64L477.87 11.64L477.87 11.64Q478.71 11.95 479.60 11.95L479.60 11.95L479.60 11.95Q480.39 11.95 480.93 11.49L480.93 11.49L480.93 11.49Q481.46 11.04 481.46 10.26L481.46 10.26L481.46 10.26Q481.46 9.65 481.00 9.21L481.00 9.21L481.00 9.21Q480.53 8.76 479.67 8.30L479.67 8.30L479.10 7.98L479.10 7.98Q478.35 7.55 478.12 7.36L478.12 7.36L478.12 7.36Q477.76 7.08 477.45 6.59L477.45 6.59L477.45 6.59Q477.13 6.10 477.13 5.46L477.13 5.46L477.13 5.46Q477.13 4.39 477.98 3.68L477.98 3.68L477.98 3.68Q478.82 2.97 479.92 2.97L479.92 2.97L479.92 2.97Q480.20 2.97 480.55 3.04L480.55 3.04L480.55 3.04Q480.75 3.08 481.09 3.17L481.09 3.17L481.33 3.25L481.33 3.25Q481.42 3.25 481.46 3.16L481.46 3.16L481.46 3.16Q481.52 3.05 481.52 2.98L481.52 2.98L481.53 2.88L482.01 2.85L482.22 5.41L481.71 5.43L481.59 4.18L481.59 4.18Q480.85 3.62 479.68 3.62L479.68 3.62L479.68 3.62Q479.04 3.62 478.54 4.05L478.54 4.05L478.54 4.05Q478.06 4.47 478.06 5.12L478.06 5.12L478.06 5.12Q478.06 5.72 478.51 6.17L478.51 6.17L478.51 6.17Q478.94 6.60 479.81 7.08L479.81 7.08L480.58 7.50L480.58 7.50Q481.53 8.03 482.06 8.59L482.06 8.59L482.06 8.59Q482.60 9.15 482.60 9.92L482.60 9.92L482.60 9.92Q482.60 10.99 481.74 11.76L481.74 11.76L481.74 11.76Q480.87 12.54 479.42 12.54L479.42 12.54L479.42 12.54Q478.86 12.54 478.35 12.41L478.35 12.41L478.35 12.41Q477.85 12.29 477.80 12.29L477.80 12.29L477.80 12.29Q477.54 12.29 477.54 12.58L477.54 12.58L477.56 12.76L477.08 12.80L477.08 12.80Q477.02 12.41 476.53 10.04ZM491.27 11.84L491.27 11.84L491.27 11.84Q491.27 11.68 491.55 11.45L491.55 11.45L491.55 11.45Q491.83 11.21 491.94 11.21L491.94 11.21L491.94 11.21Q492.14 11.21 492.38 11.49L492.38 11.49L492.38 11.49Q492.60 11.76 492.60 11.91L492.60 11.91L492.60 11.91Q492.60 12.09 492.34 12.32L492.34 12.32L492.34 12.32Q492.06 12.56 491.90 12.55L491.90 12.55L491.90 12.55Q491.78 12.55 491.52 12.29L491.52 12.29L491.52 12.29Q491.27 12.02 491.27 11.84Z"></path></g></svg>